<?xml version="1.0" encoding="utf-8" standalone="no"?>
<!DOCTYPE svg PUBLIC "-//W3C//DTD SVG 1.1//EN"
  "http://www.w3.org/Graphics/SVG/1.1/DTD/svg11.dtd">
<svg xmlns:xlink="http://www.w3.org/1999/xlink" width="890.528381pt" height="354.766875pt" viewBox="0 0 890.528381 354.766875" xmlns="http://www.w3.org/2000/svg" version="1.1">
 <metadata>
  <rdf:RDF xmlns:dc="http://purl.org/dc/elements/1.1/" xmlns:cc="http://creativecommons.org/ns#" xmlns:rdf="http://www.w3.org/1999/02/22-rdf-syntax-ns#">
   <cc:Work>
    <dc:type rdf:resource="http://purl.org/dc/dcmitype/StillImage"/>
    <dc:date>2026-02-21T02:12:07.050767</dc:date>
    <dc:format>image/svg+xml</dc:format>
    <dc:creator>
     <cc:Agent>
      <dc:title>Matplotlib v3.10.0, https://matplotlib.org/</dc:title>
     </cc:Agent>
    </dc:creator>
   </cc:Work>
  </rdf:RDF>
 </metadata>
 <defs>
  <style type="text/css">*{stroke-linejoin: round; stroke-linecap: butt}</style>
 </defs>
 <g id="figure_1">
  <g id="patch_1">
   <path d="M 0 354.766875 
L 890.528381 354.766875 
L 890.528381 0 
L 0 0 
z
" style="fill: #ffffff"/>
  </g>
  <g id="axes_1">
   <g id="patch_2">
    <path d="M 89.065625 305.596875 
L 870.265625 305.596875 
L 870.265625 28.396875 
L 89.065625 28.396875 
z
" style="fill: #ffffff"/>
   </g>
   <g id="patch_3">
    <path d="M 298.174716 300.867424 
C 303.40645 300.867424 308.42461 291.745226 312.124004 275.509889 
C 315.823399 259.274551 317.901989 237.251617 317.901989 214.291383 
C 317.901989 191.331148 315.823399 169.308215 312.124004 153.072877 
C 308.42461 136.83754 303.40645 127.715342 298.174716 127.715342 
C 292.942982 127.715342 287.924822 136.83754 284.225428 153.072877 
C 280.526033 169.308215 278.447443 191.331148 278.447443 214.291383 
C 278.447443 237.251617 280.526033 259.274551 284.225428 275.509889 
C 287.924822 291.745226 292.942982 300.867424 298.174716 300.867424 
L 298.174716 300.867424 
z
" clip-path="url(#p357d53d406)" style="fill: none; stroke-dasharray: 7.4,3.2; stroke-dashoffset: 0; stroke: #ff0000; stroke-width: 2; stroke-linejoin: miter"/>
   </g>
   <g id="matplotlib.axis_1">
    <g id="xtick_1">
     <g id="line2d_1">
      <path d="M 124.574716 305.596875 
L 124.574716 28.396875 
" clip-path="url(#p357d53d406)" style="fill: none; stroke: #b0b0b0; stroke-opacity: 0.3; stroke-width: 0.8; stroke-linecap: square"/>
     </g>
     <g id="line2d_2">
      <defs>
       <path id="m3aeef1a5ce" d="M 0 0 
L 0 3.5 
" style="stroke: #000000; stroke-width: 0.8"/>
      </defs>
      <g>
       <use xlink:href="#m3aeef1a5ce" x="124.574716" y="305.596875" style="stroke: #000000; stroke-width: 0.8"/>
      </g>
     </g>
     <g id="text_1">
      <!-- 2016-01-01 -->
      <g transform="translate(83.893778 323.234687) scale(0.14 -0.14)">
       <defs>
        <path id="DejaVuSans-32" d="M 1228 531 
L 3431 531 
L 3431 0 
L 469 0 
L 469 531 
Q 828 903 1448 1529 
Q 2069 2156 2228 2338 
Q 2531 2678 2651 2914 
Q 2772 3150 2772 3378 
Q 2772 3750 2511 3984 
Q 2250 4219 1831 4219 
Q 1534 4219 1204 4116 
Q 875 4013 500 3803 
L 500 4441 
Q 881 4594 1212 4672 
Q 1544 4750 1819 4750 
Q 2544 4750 2975 4387 
Q 3406 4025 3406 3419 
Q 3406 3131 3298 2873 
Q 3191 2616 2906 2266 
Q 2828 2175 2409 1742 
Q 1991 1309 1228 531 
z
" transform="scale(0.015625)"/>
        <path id="DejaVuSans-30" d="M 2034 4250 
Q 1547 4250 1301 3770 
Q 1056 3291 1056 2328 
Q 1056 1369 1301 889 
Q 1547 409 2034 409 
Q 2525 409 2770 889 
Q 3016 1369 3016 2328 
Q 3016 3291 2770 3770 
Q 2525 4250 2034 4250 
z
M 2034 4750 
Q 2819 4750 3233 4129 
Q 3647 3509 3647 2328 
Q 3647 1150 3233 529 
Q 2819 -91 2034 -91 
Q 1250 -91 836 529 
Q 422 1150 422 2328 
Q 422 3509 836 4129 
Q 1250 4750 2034 4750 
z
" transform="scale(0.015625)"/>
        <path id="DejaVuSans-31" d="M 794 531 
L 1825 531 
L 1825 4091 
L 703 3866 
L 703 4441 
L 1819 4666 
L 2450 4666 
L 2450 531 
L 3481 531 
L 3481 0 
L 794 0 
L 794 531 
z
" transform="scale(0.015625)"/>
        <path id="DejaVuSans-36" d="M 2113 2584 
Q 1688 2584 1439 2293 
Q 1191 2003 1191 1497 
Q 1191 994 1439 701 
Q 1688 409 2113 409 
Q 2538 409 2786 701 
Q 3034 994 3034 1497 
Q 3034 2003 2786 2293 
Q 2538 2584 2113 2584 
z
M 3366 4563 
L 3366 3988 
Q 3128 4100 2886 4159 
Q 2644 4219 2406 4219 
Q 1781 4219 1451 3797 
Q 1122 3375 1075 2522 
Q 1259 2794 1537 2939 
Q 1816 3084 2150 3084 
Q 2853 3084 3261 2657 
Q 3669 2231 3669 1497 
Q 3669 778 3244 343 
Q 2819 -91 2113 -91 
Q 1303 -91 875 529 
Q 447 1150 447 2328 
Q 447 3434 972 4092 
Q 1497 4750 2381 4750 
Q 2619 4750 2861 4703 
Q 3103 4656 3366 4563 
z
" transform="scale(0.015625)"/>
        <path id="DejaVuSans-2d" d="M 313 2009 
L 1997 2009 
L 1997 1497 
L 313 1497 
L 313 2009 
z
" transform="scale(0.015625)"/>
       </defs>
       <use xlink:href="#DejaVuSans-32"/>
       <use xlink:href="#DejaVuSans-30" transform="translate(63.623047 0)"/>
       <use xlink:href="#DejaVuSans-31" transform="translate(127.246094 0)"/>
       <use xlink:href="#DejaVuSans-36" transform="translate(190.869141 0)"/>
       <use xlink:href="#DejaVuSans-2d" transform="translate(254.492188 0)"/>
       <use xlink:href="#DejaVuSans-30" transform="translate(290.576172 0)"/>
       <use xlink:href="#DejaVuSans-31" transform="translate(354.199219 0)"/>
       <use xlink:href="#DejaVuSans-2d" transform="translate(417.822266 0)"/>
       <use xlink:href="#DejaVuSans-30" transform="translate(453.90625 0)"/>
       <use xlink:href="#DejaVuSans-31" transform="translate(517.529297 0)"/>
      </g>
     </g>
    </g>
    <g id="xtick_2">
     <g id="line2d_3">
      <path d="M 235.047443 305.596875 
L 235.047443 28.396875 
" clip-path="url(#p357d53d406)" style="fill: none; stroke: #b0b0b0; stroke-opacity: 0.3; stroke-width: 0.8; stroke-linecap: square"/>
     </g>
     <g id="line2d_4">
      <g>
       <use xlink:href="#m3aeef1a5ce" x="235.047443" y="305.596875" style="stroke: #000000; stroke-width: 0.8"/>
      </g>
     </g>
     <g id="text_2">
      <!-- 2016-01-15 -->
      <g transform="translate(194.366506 323.234687) scale(0.14 -0.14)">
       <defs>
        <path id="DejaVuSans-35" d="M 691 4666 
L 3169 4666 
L 3169 4134 
L 1269 4134 
L 1269 2991 
Q 1406 3038 1543 3061 
Q 1681 3084 1819 3084 
Q 2600 3084 3056 2656 
Q 3513 2228 3513 1497 
Q 3513 744 3044 326 
Q 2575 -91 1722 -91 
Q 1428 -91 1123 -41 
Q 819 9 494 109 
L 494 744 
Q 775 591 1075 516 
Q 1375 441 1709 441 
Q 2250 441 2565 725 
Q 2881 1009 2881 1497 
Q 2881 1984 2565 2268 
Q 2250 2553 1709 2553 
Q 1456 2553 1204 2497 
Q 953 2441 691 2322 
L 691 4666 
z
" transform="scale(0.015625)"/>
       </defs>
       <use xlink:href="#DejaVuSans-32"/>
       <use xlink:href="#DejaVuSans-30" transform="translate(63.623047 0)"/>
       <use xlink:href="#DejaVuSans-31" transform="translate(127.246094 0)"/>
       <use xlink:href="#DejaVuSans-36" transform="translate(190.869141 0)"/>
       <use xlink:href="#DejaVuSans-2d" transform="translate(254.492188 0)"/>
       <use xlink:href="#DejaVuSans-30" transform="translate(290.576172 0)"/>
       <use xlink:href="#DejaVuSans-31" transform="translate(354.199219 0)"/>
       <use xlink:href="#DejaVuSans-2d" transform="translate(417.822266 0)"/>
       <use xlink:href="#DejaVuSans-31" transform="translate(453.90625 0)"/>
       <use xlink:href="#DejaVuSans-35" transform="translate(517.529297 0)"/>
      </g>
     </g>
    </g>
    <g id="xtick_3">
     <g id="line2d_5">
      <path d="M 369.192898 305.596875 
L 369.192898 28.396875 
" clip-path="url(#p357d53d406)" style="fill: none; stroke: #b0b0b0; stroke-opacity: 0.3; stroke-width: 0.8; stroke-linecap: square"/>
     </g>
     <g id="line2d_6">
      <g>
       <use xlink:href="#m3aeef1a5ce" x="369.192898" y="305.596875" style="stroke: #000000; stroke-width: 0.8"/>
      </g>
     </g>
     <g id="text_3">
      <!-- 2016-02-01 -->
      <g transform="translate(328.51196 323.234687) scale(0.14 -0.14)">
       <use xlink:href="#DejaVuSans-32"/>
       <use xlink:href="#DejaVuSans-30" transform="translate(63.623047 0)"/>
       <use xlink:href="#DejaVuSans-31" transform="translate(127.246094 0)"/>
       <use xlink:href="#DejaVuSans-36" transform="translate(190.869141 0)"/>
       <use xlink:href="#DejaVuSans-2d" transform="translate(254.492188 0)"/>
       <use xlink:href="#DejaVuSans-30" transform="translate(290.576172 0)"/>
       <use xlink:href="#DejaVuSans-32" transform="translate(354.199219 0)"/>
       <use xlink:href="#DejaVuSans-2d" transform="translate(417.822266 0)"/>
       <use xlink:href="#DejaVuSans-30" transform="translate(453.90625 0)"/>
       <use xlink:href="#DejaVuSans-31" transform="translate(517.529297 0)"/>
      </g>
     </g>
    </g>
    <g id="xtick_4">
     <g id="line2d_7">
      <path d="M 479.665625 305.596875 
L 479.665625 28.396875 
" clip-path="url(#p357d53d406)" style="fill: none; stroke: #b0b0b0; stroke-opacity: 0.3; stroke-width: 0.8; stroke-linecap: square"/>
     </g>
     <g id="line2d_8">
      <g>
       <use xlink:href="#m3aeef1a5ce" x="479.665625" y="305.596875" style="stroke: #000000; stroke-width: 0.8"/>
      </g>
     </g>
     <g id="text_4">
      <!-- 2016-02-15 -->
      <g transform="translate(438.984687 323.234687) scale(0.14 -0.14)">
       <use xlink:href="#DejaVuSans-32"/>
       <use xlink:href="#DejaVuSans-30" transform="translate(63.623047 0)"/>
       <use xlink:href="#DejaVuSans-31" transform="translate(127.246094 0)"/>
       <use xlink:href="#DejaVuSans-36" transform="translate(190.869141 0)"/>
       <use xlink:href="#DejaVuSans-2d" transform="translate(254.492188 0)"/>
       <use xlink:href="#DejaVuSans-30" transform="translate(290.576172 0)"/>
       <use xlink:href="#DejaVuSans-32" transform="translate(354.199219 0)"/>
       <use xlink:href="#DejaVuSans-2d" transform="translate(417.822266 0)"/>
       <use xlink:href="#DejaVuSans-31" transform="translate(453.90625 0)"/>
       <use xlink:href="#DejaVuSans-35" transform="translate(517.529297 0)"/>
      </g>
     </g>
    </g>
    <g id="xtick_5">
     <g id="line2d_9">
      <path d="M 598.029261 305.596875 
L 598.029261 28.396875 
" clip-path="url(#p357d53d406)" style="fill: none; stroke: #b0b0b0; stroke-opacity: 0.3; stroke-width: 0.8; stroke-linecap: square"/>
     </g>
     <g id="line2d_10">
      <g>
       <use xlink:href="#m3aeef1a5ce" x="598.029261" y="305.596875" style="stroke: #000000; stroke-width: 0.8"/>
      </g>
     </g>
     <g id="text_5">
      <!-- 2016-03-01 -->
      <g transform="translate(557.348324 323.234687) scale(0.14 -0.14)">
       <defs>
        <path id="DejaVuSans-33" d="M 2597 2516 
Q 3050 2419 3304 2112 
Q 3559 1806 3559 1356 
Q 3559 666 3084 287 
Q 2609 -91 1734 -91 
Q 1441 -91 1130 -33 
Q 819 25 488 141 
L 488 750 
Q 750 597 1062 519 
Q 1375 441 1716 441 
Q 2309 441 2620 675 
Q 2931 909 2931 1356 
Q 2931 1769 2642 2001 
Q 2353 2234 1838 2234 
L 1294 2234 
L 1294 2753 
L 1863 2753 
Q 2328 2753 2575 2939 
Q 2822 3125 2822 3475 
Q 2822 3834 2567 4026 
Q 2313 4219 1838 4219 
Q 1578 4219 1281 4162 
Q 984 4106 628 3988 
L 628 4550 
Q 988 4650 1302 4700 
Q 1616 4750 1894 4750 
Q 2613 4750 3031 4423 
Q 3450 4097 3450 3541 
Q 3450 3153 3228 2886 
Q 3006 2619 2597 2516 
z
" transform="scale(0.015625)"/>
       </defs>
       <use xlink:href="#DejaVuSans-32"/>
       <use xlink:href="#DejaVuSans-30" transform="translate(63.623047 0)"/>
       <use xlink:href="#DejaVuSans-31" transform="translate(127.246094 0)"/>
       <use xlink:href="#DejaVuSans-36" transform="translate(190.869141 0)"/>
       <use xlink:href="#DejaVuSans-2d" transform="translate(254.492188 0)"/>
       <use xlink:href="#DejaVuSans-30" transform="translate(290.576172 0)"/>
       <use xlink:href="#DejaVuSans-33" transform="translate(354.199219 0)"/>
       <use xlink:href="#DejaVuSans-2d" transform="translate(417.822266 0)"/>
       <use xlink:href="#DejaVuSans-30" transform="translate(453.90625 0)"/>
       <use xlink:href="#DejaVuSans-31" transform="translate(517.529297 0)"/>
      </g>
     </g>
    </g>
    <g id="xtick_6">
     <g id="line2d_11">
      <path d="M 708.501989 305.596875 
L 708.501989 28.396875 
" clip-path="url(#p357d53d406)" style="fill: none; stroke: #b0b0b0; stroke-opacity: 0.3; stroke-width: 0.8; stroke-linecap: square"/>
     </g>
     <g id="line2d_12">
      <g>
       <use xlink:href="#m3aeef1a5ce" x="708.501989" y="305.596875" style="stroke: #000000; stroke-width: 0.8"/>
      </g>
     </g>
     <g id="text_6">
      <!-- 2016-03-15 -->
      <g transform="translate(667.821051 323.234687) scale(0.14 -0.14)">
       <use xlink:href="#DejaVuSans-32"/>
       <use xlink:href="#DejaVuSans-30" transform="translate(63.623047 0)"/>
       <use xlink:href="#DejaVuSans-31" transform="translate(127.246094 0)"/>
       <use xlink:href="#DejaVuSans-36" transform="translate(190.869141 0)"/>
       <use xlink:href="#DejaVuSans-2d" transform="translate(254.492188 0)"/>
       <use xlink:href="#DejaVuSans-30" transform="translate(290.576172 0)"/>
       <use xlink:href="#DejaVuSans-33" transform="translate(354.199219 0)"/>
       <use xlink:href="#DejaVuSans-2d" transform="translate(417.822266 0)"/>
       <use xlink:href="#DejaVuSans-31" transform="translate(453.90625 0)"/>
       <use xlink:href="#DejaVuSans-35" transform="translate(517.529297 0)"/>
      </g>
     </g>
    </g>
    <g id="xtick_7">
     <g id="line2d_13">
      <path d="M 842.647443 305.596875 
L 842.647443 28.396875 
" clip-path="url(#p357d53d406)" style="fill: none; stroke: #b0b0b0; stroke-opacity: 0.3; stroke-width: 0.8; stroke-linecap: square"/>
     </g>
     <g id="line2d_14">
      <g>
       <use xlink:href="#m3aeef1a5ce" x="842.647443" y="305.596875" style="stroke: #000000; stroke-width: 0.8"/>
      </g>
     </g>
     <g id="text_7">
      <!-- 2016-04-01 -->
      <g transform="translate(801.966506 323.234687) scale(0.14 -0.14)">
       <defs>
        <path id="DejaVuSans-34" d="M 2419 4116 
L 825 1625 
L 2419 1625 
L 2419 4116 
z
M 2253 4666 
L 3047 4666 
L 3047 1625 
L 3713 1625 
L 3713 1100 
L 3047 1100 
L 3047 0 
L 2419 0 
L 2419 1100 
L 313 1100 
L 313 1709 
L 2253 4666 
z
" transform="scale(0.015625)"/>
       </defs>
       <use xlink:href="#DejaVuSans-32"/>
       <use xlink:href="#DejaVuSans-30" transform="translate(63.623047 0)"/>
       <use xlink:href="#DejaVuSans-31" transform="translate(127.246094 0)"/>
       <use xlink:href="#DejaVuSans-36" transform="translate(190.869141 0)"/>
       <use xlink:href="#DejaVuSans-2d" transform="translate(254.492188 0)"/>
       <use xlink:href="#DejaVuSans-30" transform="translate(290.576172 0)"/>
       <use xlink:href="#DejaVuSans-34" transform="translate(354.199219 0)"/>
       <use xlink:href="#DejaVuSans-2d" transform="translate(417.822266 0)"/>
       <use xlink:href="#DejaVuSans-30" transform="translate(453.90625 0)"/>
       <use xlink:href="#DejaVuSans-31" transform="translate(517.529297 0)"/>
      </g>
     </g>
    </g>
    <g id="text_8">
     <!-- Date -->
     <g transform="translate(458.154219 343.823437) scale(0.18 -0.18)">
      <defs>
       <path id="DejaVuSans-44" d="M 1259 4147 
L 1259 519 
L 2022 519 
Q 2988 519 3436 956 
Q 3884 1394 3884 2338 
Q 3884 3275 3436 3711 
Q 2988 4147 2022 4147 
L 1259 4147 
z
M 628 4666 
L 1925 4666 
Q 3281 4666 3915 4102 
Q 4550 3538 4550 2338 
Q 4550 1131 3912 565 
Q 3275 0 1925 0 
L 628 0 
L 628 4666 
z
" transform="scale(0.015625)"/>
       <path id="DejaVuSans-61" d="M 2194 1759 
Q 1497 1759 1228 1600 
Q 959 1441 959 1056 
Q 959 750 1161 570 
Q 1363 391 1709 391 
Q 2188 391 2477 730 
Q 2766 1069 2766 1631 
L 2766 1759 
L 2194 1759 
z
M 3341 1997 
L 3341 0 
L 2766 0 
L 2766 531 
Q 2569 213 2275 61 
Q 1981 -91 1556 -91 
Q 1019 -91 701 211 
Q 384 513 384 1019 
Q 384 1609 779 1909 
Q 1175 2209 1959 2209 
L 2766 2209 
L 2766 2266 
Q 2766 2663 2505 2880 
Q 2244 3097 1772 3097 
Q 1472 3097 1187 3025 
Q 903 2953 641 2809 
L 641 3341 
Q 956 3463 1253 3523 
Q 1550 3584 1831 3584 
Q 2591 3584 2966 3190 
Q 3341 2797 3341 1997 
z
" transform="scale(0.015625)"/>
       <path id="DejaVuSans-74" d="M 1172 4494 
L 1172 3500 
L 2356 3500 
L 2356 3053 
L 1172 3053 
L 1172 1153 
Q 1172 725 1289 603 
Q 1406 481 1766 481 
L 2356 481 
L 2356 0 
L 1766 0 
Q 1100 0 847 248 
Q 594 497 594 1153 
L 594 3053 
L 172 3053 
L 172 3500 
L 594 3500 
L 594 4494 
L 1172 4494 
z
" transform="scale(0.015625)"/>
       <path id="DejaVuSans-65" d="M 3597 1894 
L 3597 1613 
L 953 1613 
Q 991 1019 1311 708 
Q 1631 397 2203 397 
Q 2534 397 2845 478 
Q 3156 559 3463 722 
L 3463 178 
Q 3153 47 2828 -22 
Q 2503 -91 2169 -91 
Q 1331 -91 842 396 
Q 353 884 353 1716 
Q 353 2575 817 3079 
Q 1281 3584 2069 3584 
Q 2775 3584 3186 3129 
Q 3597 2675 3597 1894 
z
M 3022 2063 
Q 3016 2534 2758 2815 
Q 2500 3097 2075 3097 
Q 1594 3097 1305 2825 
Q 1016 2553 972 2059 
L 3022 2063 
z
" transform="scale(0.015625)"/>
      </defs>
      <use xlink:href="#DejaVuSans-44"/>
      <use xlink:href="#DejaVuSans-61" transform="translate(77.001953 0)"/>
      <use xlink:href="#DejaVuSans-74" transform="translate(138.28125 0)"/>
      <use xlink:href="#DejaVuSans-65" transform="translate(177.490234 0)"/>
     </g>
    </g>
   </g>
   <g id="matplotlib.axis_2">
    <g id="ytick_1">
     <g id="line2d_15">
      <path d="M 89.065625 276.327178 
L 870.265625 276.327178 
" clip-path="url(#p357d53d406)" style="fill: none; stroke: #b0b0b0; stroke-opacity: 0.3; stroke-width: 0.8; stroke-linecap: square"/>
     </g>
     <g id="line2d_16">
      <defs>
       <path id="m1ecc55aa81" d="M 0 0 
L -3.5 0 
" style="stroke: #000000; stroke-width: 0.8"/>
      </defs>
      <g>
       <use xlink:href="#m1ecc55aa81" x="89.065625" y="276.327178" style="stroke: #000000; stroke-width: 0.8"/>
      </g>
     </g>
     <g id="text_9">
      <!-- 100000 -->
      <g transform="translate(28.620625 281.646084) scale(0.14 -0.14)">
       <use xlink:href="#DejaVuSans-31"/>
       <use xlink:href="#DejaVuSans-30" transform="translate(63.623047 0)"/>
       <use xlink:href="#DejaVuSans-30" transform="translate(127.246094 0)"/>
       <use xlink:href="#DejaVuSans-30" transform="translate(190.869141 0)"/>
       <use xlink:href="#DejaVuSans-30" transform="translate(254.492188 0)"/>
       <use xlink:href="#DejaVuSans-30" transform="translate(318.115234 0)"/>
      </g>
     </g>
    </g>
    <g id="ytick_2">
     <g id="line2d_17">
      <path d="M 89.065625 241.696761 
L 870.265625 241.696761 
" clip-path="url(#p357d53d406)" style="fill: none; stroke: #b0b0b0; stroke-opacity: 0.3; stroke-width: 0.8; stroke-linecap: square"/>
     </g>
     <g id="line2d_18">
      <g>
       <use xlink:href="#m1ecc55aa81" x="89.065625" y="241.696761" style="stroke: #000000; stroke-width: 0.8"/>
      </g>
     </g>
     <g id="text_10">
      <!-- 150000 -->
      <g transform="translate(28.620625 247.015667) scale(0.14 -0.14)">
       <use xlink:href="#DejaVuSans-31"/>
       <use xlink:href="#DejaVuSans-35" transform="translate(63.623047 0)"/>
       <use xlink:href="#DejaVuSans-30" transform="translate(127.246094 0)"/>
       <use xlink:href="#DejaVuSans-30" transform="translate(190.869141 0)"/>
       <use xlink:href="#DejaVuSans-30" transform="translate(254.492188 0)"/>
       <use xlink:href="#DejaVuSans-30" transform="translate(318.115234 0)"/>
      </g>
     </g>
    </g>
    <g id="ytick_3">
     <g id="line2d_19">
      <path d="M 89.065625 207.066345 
L 870.265625 207.066345 
" clip-path="url(#p357d53d406)" style="fill: none; stroke: #b0b0b0; stroke-opacity: 0.3; stroke-width: 0.8; stroke-linecap: square"/>
     </g>
     <g id="line2d_20">
      <g>
       <use xlink:href="#m1ecc55aa81" x="89.065625" y="207.066345" style="stroke: #000000; stroke-width: 0.8"/>
      </g>
     </g>
     <g id="text_11">
      <!-- 200000 -->
      <g transform="translate(28.620625 212.385251) scale(0.14 -0.14)">
       <use xlink:href="#DejaVuSans-32"/>
       <use xlink:href="#DejaVuSans-30" transform="translate(63.623047 0)"/>
       <use xlink:href="#DejaVuSans-30" transform="translate(127.246094 0)"/>
       <use xlink:href="#DejaVuSans-30" transform="translate(190.869141 0)"/>
       <use xlink:href="#DejaVuSans-30" transform="translate(254.492188 0)"/>
       <use xlink:href="#DejaVuSans-30" transform="translate(318.115234 0)"/>
      </g>
     </g>
    </g>
    <g id="ytick_4">
     <g id="line2d_21">
      <path d="M 89.065625 172.435928 
L 870.265625 172.435928 
" clip-path="url(#p357d53d406)" style="fill: none; stroke: #b0b0b0; stroke-opacity: 0.3; stroke-width: 0.8; stroke-linecap: square"/>
     </g>
     <g id="line2d_22">
      <g>
       <use xlink:href="#m1ecc55aa81" x="89.065625" y="172.435928" style="stroke: #000000; stroke-width: 0.8"/>
      </g>
     </g>
     <g id="text_12">
      <!-- 250000 -->
      <g transform="translate(28.620625 177.754834) scale(0.14 -0.14)">
       <use xlink:href="#DejaVuSans-32"/>
       <use xlink:href="#DejaVuSans-35" transform="translate(63.623047 0)"/>
       <use xlink:href="#DejaVuSans-30" transform="translate(127.246094 0)"/>
       <use xlink:href="#DejaVuSans-30" transform="translate(190.869141 0)"/>
       <use xlink:href="#DejaVuSans-30" transform="translate(254.492188 0)"/>
       <use xlink:href="#DejaVuSans-30" transform="translate(318.115234 0)"/>
      </g>
     </g>
    </g>
    <g id="ytick_5">
     <g id="line2d_23">
      <path d="M 89.065625 137.805512 
L 870.265625 137.805512 
" clip-path="url(#p357d53d406)" style="fill: none; stroke: #b0b0b0; stroke-opacity: 0.3; stroke-width: 0.8; stroke-linecap: square"/>
     </g>
     <g id="line2d_24">
      <g>
       <use xlink:href="#m1ecc55aa81" x="89.065625" y="137.805512" style="stroke: #000000; stroke-width: 0.8"/>
      </g>
     </g>
     <g id="text_13">
      <!-- 300000 -->
      <g transform="translate(28.620625 143.124418) scale(0.14 -0.14)">
       <use xlink:href="#DejaVuSans-33"/>
       <use xlink:href="#DejaVuSans-30" transform="translate(63.623047 0)"/>
       <use xlink:href="#DejaVuSans-30" transform="translate(127.246094 0)"/>
       <use xlink:href="#DejaVuSans-30" transform="translate(190.869141 0)"/>
       <use xlink:href="#DejaVuSans-30" transform="translate(254.492188 0)"/>
       <use xlink:href="#DejaVuSans-30" transform="translate(318.115234 0)"/>
      </g>
     </g>
    </g>
    <g id="ytick_6">
     <g id="line2d_25">
      <path d="M 89.065625 103.175095 
L 870.265625 103.175095 
" clip-path="url(#p357d53d406)" style="fill: none; stroke: #b0b0b0; stroke-opacity: 0.3; stroke-width: 0.8; stroke-linecap: square"/>
     </g>
     <g id="line2d_26">
      <g>
       <use xlink:href="#m1ecc55aa81" x="89.065625" y="103.175095" style="stroke: #000000; stroke-width: 0.8"/>
      </g>
     </g>
     <g id="text_14">
      <!-- 350000 -->
      <g transform="translate(28.620625 108.494001) scale(0.14 -0.14)">
       <use xlink:href="#DejaVuSans-33"/>
       <use xlink:href="#DejaVuSans-35" transform="translate(63.623047 0)"/>
       <use xlink:href="#DejaVuSans-30" transform="translate(127.246094 0)"/>
       <use xlink:href="#DejaVuSans-30" transform="translate(190.869141 0)"/>
       <use xlink:href="#DejaVuSans-30" transform="translate(254.492188 0)"/>
       <use xlink:href="#DejaVuSans-30" transform="translate(318.115234 0)"/>
      </g>
     </g>
    </g>
    <g id="ytick_7">
     <g id="line2d_27">
      <path d="M 89.065625 68.544679 
L 870.265625 68.544679 
" clip-path="url(#p357d53d406)" style="fill: none; stroke: #b0b0b0; stroke-opacity: 0.3; stroke-width: 0.8; stroke-linecap: square"/>
     </g>
     <g id="line2d_28">
      <g>
       <use xlink:href="#m1ecc55aa81" x="89.065625" y="68.544679" style="stroke: #000000; stroke-width: 0.8"/>
      </g>
     </g>
     <g id="text_15">
      <!-- 400000 -->
      <g transform="translate(28.620625 73.863585) scale(0.14 -0.14)">
       <use xlink:href="#DejaVuSans-34"/>
       <use xlink:href="#DejaVuSans-30" transform="translate(63.623047 0)"/>
       <use xlink:href="#DejaVuSans-30" transform="translate(127.246094 0)"/>
       <use xlink:href="#DejaVuSans-30" transform="translate(190.869141 0)"/>
       <use xlink:href="#DejaVuSans-30" transform="translate(254.492188 0)"/>
       <use xlink:href="#DejaVuSans-30" transform="translate(318.115234 0)"/>
      </g>
     </g>
    </g>
    <g id="ytick_8">
     <g id="line2d_29">
      <path d="M 89.065625 33.914262 
L 870.265625 33.914262 
" clip-path="url(#p357d53d406)" style="fill: none; stroke: #b0b0b0; stroke-opacity: 0.3; stroke-width: 0.8; stroke-linecap: square"/>
     </g>
     <g id="line2d_30">
      <g>
       <use xlink:href="#m1ecc55aa81" x="89.065625" y="33.914262" style="stroke: #000000; stroke-width: 0.8"/>
      </g>
     </g>
     <g id="text_16">
      <!-- 450000 -->
      <g transform="translate(28.620625 39.233168) scale(0.14 -0.14)">
       <use xlink:href="#DejaVuSans-34"/>
       <use xlink:href="#DejaVuSans-35" transform="translate(63.623047 0)"/>
       <use xlink:href="#DejaVuSans-30" transform="translate(127.246094 0)"/>
       <use xlink:href="#DejaVuSans-30" transform="translate(190.869141 0)"/>
       <use xlink:href="#DejaVuSans-30" transform="translate(254.492188 0)"/>
       <use xlink:href="#DejaVuSans-30" transform="translate(318.115234 0)"/>
      </g>
     </g>
    </g>
    <g id="text_17">
     <!-- Number of Trips -->
     <g transform="translate(20.877188 238.319062) rotate(-90) scale(0.18 -0.18)">
      <defs>
       <path id="DejaVuSans-4e" d="M 628 4666 
L 1478 4666 
L 3547 763 
L 3547 4666 
L 4159 4666 
L 4159 0 
L 3309 0 
L 1241 3903 
L 1241 0 
L 628 0 
L 628 4666 
z
" transform="scale(0.015625)"/>
       <path id="DejaVuSans-75" d="M 544 1381 
L 544 3500 
L 1119 3500 
L 1119 1403 
Q 1119 906 1312 657 
Q 1506 409 1894 409 
Q 2359 409 2629 706 
Q 2900 1003 2900 1516 
L 2900 3500 
L 3475 3500 
L 3475 0 
L 2900 0 
L 2900 538 
Q 2691 219 2414 64 
Q 2138 -91 1772 -91 
Q 1169 -91 856 284 
Q 544 659 544 1381 
z
M 1991 3584 
L 1991 3584 
z
" transform="scale(0.015625)"/>
       <path id="DejaVuSans-6d" d="M 3328 2828 
Q 3544 3216 3844 3400 
Q 4144 3584 4550 3584 
Q 5097 3584 5394 3201 
Q 5691 2819 5691 2113 
L 5691 0 
L 5113 0 
L 5113 2094 
Q 5113 2597 4934 2840 
Q 4756 3084 4391 3084 
Q 3944 3084 3684 2787 
Q 3425 2491 3425 1978 
L 3425 0 
L 2847 0 
L 2847 2094 
Q 2847 2600 2669 2842 
Q 2491 3084 2119 3084 
Q 1678 3084 1418 2786 
Q 1159 2488 1159 1978 
L 1159 0 
L 581 0 
L 581 3500 
L 1159 3500 
L 1159 2956 
Q 1356 3278 1631 3431 
Q 1906 3584 2284 3584 
Q 2666 3584 2933 3390 
Q 3200 3197 3328 2828 
z
" transform="scale(0.015625)"/>
       <path id="DejaVuSans-62" d="M 3116 1747 
Q 3116 2381 2855 2742 
Q 2594 3103 2138 3103 
Q 1681 3103 1420 2742 
Q 1159 2381 1159 1747 
Q 1159 1113 1420 752 
Q 1681 391 2138 391 
Q 2594 391 2855 752 
Q 3116 1113 3116 1747 
z
M 1159 2969 
Q 1341 3281 1617 3432 
Q 1894 3584 2278 3584 
Q 2916 3584 3314 3078 
Q 3713 2572 3713 1747 
Q 3713 922 3314 415 
Q 2916 -91 2278 -91 
Q 1894 -91 1617 61 
Q 1341 213 1159 525 
L 1159 0 
L 581 0 
L 581 4863 
L 1159 4863 
L 1159 2969 
z
" transform="scale(0.015625)"/>
       <path id="DejaVuSans-72" d="M 2631 2963 
Q 2534 3019 2420 3045 
Q 2306 3072 2169 3072 
Q 1681 3072 1420 2755 
Q 1159 2438 1159 1844 
L 1159 0 
L 581 0 
L 581 3500 
L 1159 3500 
L 1159 2956 
Q 1341 3275 1631 3429 
Q 1922 3584 2338 3584 
Q 2397 3584 2469 3576 
Q 2541 3569 2628 3553 
L 2631 2963 
z
" transform="scale(0.015625)"/>
       <path id="DejaVuSans-20" transform="scale(0.015625)"/>
       <path id="DejaVuSans-6f" d="M 1959 3097 
Q 1497 3097 1228 2736 
Q 959 2375 959 1747 
Q 959 1119 1226 758 
Q 1494 397 1959 397 
Q 2419 397 2687 759 
Q 2956 1122 2956 1747 
Q 2956 2369 2687 2733 
Q 2419 3097 1959 3097 
z
M 1959 3584 
Q 2709 3584 3137 3096 
Q 3566 2609 3566 1747 
Q 3566 888 3137 398 
Q 2709 -91 1959 -91 
Q 1206 -91 779 398 
Q 353 888 353 1747 
Q 353 2609 779 3096 
Q 1206 3584 1959 3584 
z
" transform="scale(0.015625)"/>
       <path id="DejaVuSans-66" d="M 2375 4863 
L 2375 4384 
L 1825 4384 
Q 1516 4384 1395 4259 
Q 1275 4134 1275 3809 
L 1275 3500 
L 2222 3500 
L 2222 3053 
L 1275 3053 
L 1275 0 
L 697 0 
L 697 3053 
L 147 3053 
L 147 3500 
L 697 3500 
L 697 3744 
Q 697 4328 969 4595 
Q 1241 4863 1831 4863 
L 2375 4863 
z
" transform="scale(0.015625)"/>
       <path id="DejaVuSans-54" d="M -19 4666 
L 3928 4666 
L 3928 4134 
L 2272 4134 
L 2272 0 
L 1638 0 
L 1638 4134 
L -19 4134 
L -19 4666 
z
" transform="scale(0.015625)"/>
       <path id="DejaVuSans-69" d="M 603 3500 
L 1178 3500 
L 1178 0 
L 603 0 
L 603 3500 
z
M 603 4863 
L 1178 4863 
L 1178 4134 
L 603 4134 
L 603 4863 
z
" transform="scale(0.015625)"/>
       <path id="DejaVuSans-70" d="M 1159 525 
L 1159 -1331 
L 581 -1331 
L 581 3500 
L 1159 3500 
L 1159 2969 
Q 1341 3281 1617 3432 
Q 1894 3584 2278 3584 
Q 2916 3584 3314 3078 
Q 3713 2572 3713 1747 
Q 3713 922 3314 415 
Q 2916 -91 2278 -91 
Q 1894 -91 1617 61 
Q 1341 213 1159 525 
z
M 3116 1747 
Q 3116 2381 2855 2742 
Q 2594 3103 2138 3103 
Q 1681 3103 1420 2742 
Q 1159 2381 1159 1747 
Q 1159 1113 1420 752 
Q 1681 391 2138 391 
Q 2594 391 2855 752 
Q 3116 1113 3116 1747 
z
" transform="scale(0.015625)"/>
       <path id="DejaVuSans-73" d="M 2834 3397 
L 2834 2853 
Q 2591 2978 2328 3040 
Q 2066 3103 1784 3103 
Q 1356 3103 1142 2972 
Q 928 2841 928 2578 
Q 928 2378 1081 2264 
Q 1234 2150 1697 2047 
L 1894 2003 
Q 2506 1872 2764 1633 
Q 3022 1394 3022 966 
Q 3022 478 2636 193 
Q 2250 -91 1575 -91 
Q 1294 -91 989 -36 
Q 684 19 347 128 
L 347 722 
Q 666 556 975 473 
Q 1284 391 1588 391 
Q 1994 391 2212 530 
Q 2431 669 2431 922 
Q 2431 1156 2273 1281 
Q 2116 1406 1581 1522 
L 1381 1569 
Q 847 1681 609 1914 
Q 372 2147 372 2553 
Q 372 3047 722 3315 
Q 1072 3584 1716 3584 
Q 2034 3584 2315 3537 
Q 2597 3491 2834 3397 
z
" transform="scale(0.015625)"/>
      </defs>
      <use xlink:href="#DejaVuSans-4e"/>
      <use xlink:href="#DejaVuSans-75" transform="translate(74.804688 0)"/>
      <use xlink:href="#DejaVuSans-6d" transform="translate(138.183594 0)"/>
      <use xlink:href="#DejaVuSans-62" transform="translate(235.595703 0)"/>
      <use xlink:href="#DejaVuSans-65" transform="translate(299.072266 0)"/>
      <use xlink:href="#DejaVuSans-72" transform="translate(360.595703 0)"/>
      <use xlink:href="#DejaVuSans-20" transform="translate(401.708984 0)"/>
      <use xlink:href="#DejaVuSans-6f" transform="translate(433.496094 0)"/>
      <use xlink:href="#DejaVuSans-66" transform="translate(494.677734 0)"/>
      <use xlink:href="#DejaVuSans-20" transform="translate(529.882812 0)"/>
      <use xlink:href="#DejaVuSans-54" transform="translate(561.669922 0)"/>
      <use xlink:href="#DejaVuSans-72" transform="translate(608.003906 0)"/>
      <use xlink:href="#DejaVuSans-69" transform="translate(649.117188 0)"/>
      <use xlink:href="#DejaVuSans-70" transform="translate(676.900391 0)"/>
      <use xlink:href="#DejaVuSans-73" transform="translate(740.376953 0)"/>
     </g>
    </g>
   </g>
   <g id="line2d_31">
    <path d="M 124.574716 112.70123 
L 132.465625 134.522548 
L 140.356534 141.224919 
L 148.247443 132.339447 
L 156.138352 114.227046 
L 164.029261 110.22377 
L 171.92017 98.845601 
L 179.81108 80.585675 
L 187.701989 70.528309 
L 195.592898 106.954659 
L 203.483807 113.936843 
L 211.374716 97.166718 
L 219.265625 78.419196 
L 227.156534 77.861646 
L 235.047443 73.775949 
L 242.938352 66.44192 
L 250.829261 88.892819 
L 258.72017 114.849701 
L 266.61108 86.075288 
L 274.501989 87.629501 
L 282.392898 75.676467 
L 290.283807 61.780666 
L 298.174716 292.996875 
L 306.065625 237.517563 
L 313.956534 154.983584 
L 321.847443 123.609811 
L 329.738352 102.198517 
L 337.629261 86.053125 
L 345.52017 65.489583 
L 353.41108 51.478809 
L 361.301989 101.438726 
L 369.192898 114.204883 
L 377.083807 99.434318 
L 384.974716 93.333131 
L 392.865625 77.880346 
L 400.756534 68.388149 
L 408.647443 55.946133 
L 416.538352 93.508361 
L 424.429261 113.614781 
L 432.32017 96.565534 
L 440.21108 79.38954 
L 448.101989 54.26171 
L 455.992898 53.125139 
L 463.883807 43.795013 
L 471.774716 75.323236 
L 479.665625 109.18555 
L 487.556534 99.1268 
L 495.447443 83.694793 
L 503.338352 68.219153 
L 511.229261 61.719024 
L 519.12017 58.056511 
L 527.01108 93.688439 
L 534.901989 110.725219 
L 542.792898 77.324875 
L 550.683807 74.10009 
L 558.574716 65.301887 
L 566.465625 50.308994 
L 574.356534 48.140437 
L 582.247443 98.478518 
L 590.138352 110.16005 
L 598.029261 93.073403 
L 605.92017 69.784448 
L 613.81108 56.623504 
L 621.701989 52.01004 
L 629.592898 40.996875 
L 637.483807 85.875817 
L 645.374716 109.635746 
L 653.265625 92.826834 
L 661.156534 84.843138 
L 669.047443 69.817 
L 676.938352 57.621553 
L 684.829261 46.559212 
L 692.72017 97.544189 
L 700.61108 85.701972 
L 708.501989 85.758074 
L 716.392898 75.968055 
L 724.283807 75.234583 
L 732.174716 50.423967 
L 740.065625 47.374413 
L 747.956534 83.024348 
L 755.847443 112.914554 
L 763.738352 97.957677 
L 771.629261 87.195928 
L 779.52017 70.211094 
L 787.41108 74.743523 
L 795.301989 72.23074 
L 803.192898 111.8514 
L 811.083807 112.070264 
L 818.974716 89.68447 
L 826.865625 85.018368 
L 834.756534 78.563951 
" clip-path="url(#p357d53d406)" style="fill: none; stroke: #008080; stroke-width: 2; stroke-linecap: square"/>
    <defs>
     <path id="m9721b1855c" d="M 0 3 
C 0.795609 3 1.55874 2.683901 2.12132 2.12132 
C 2.683901 1.55874 3 0.795609 3 0 
C 3 -0.795609 2.683901 -1.55874 2.12132 -2.12132 
C 1.55874 -2.683901 0.795609 -3 0 -3 
C -0.795609 -3 -1.55874 -2.683901 -2.12132 -2.12132 
C -2.683901 -1.55874 -3 -0.795609 -3 0 
C -3 0.795609 -2.683901 1.55874 -2.12132 2.12132 
C -1.55874 2.683901 -0.795609 3 0 3 
z
" style="stroke: #008080"/>
    </defs>
    <g clip-path="url(#p357d53d406)">
     <use xlink:href="#m9721b1855c" x="124.574716" y="112.70123" style="fill: #008080; stroke: #008080"/>
     <use xlink:href="#m9721b1855c" x="132.465625" y="134.522548" style="fill: #008080; stroke: #008080"/>
     <use xlink:href="#m9721b1855c" x="140.356534" y="141.224919" style="fill: #008080; stroke: #008080"/>
     <use xlink:href="#m9721b1855c" x="148.247443" y="132.339447" style="fill: #008080; stroke: #008080"/>
     <use xlink:href="#m9721b1855c" x="156.138352" y="114.227046" style="fill: #008080; stroke: #008080"/>
     <use xlink:href="#m9721b1855c" x="164.029261" y="110.22377" style="fill: #008080; stroke: #008080"/>
     <use xlink:href="#m9721b1855c" x="171.92017" y="98.845601" style="fill: #008080; stroke: #008080"/>
     <use xlink:href="#m9721b1855c" x="179.81108" y="80.585675" style="fill: #008080; stroke: #008080"/>
     <use xlink:href="#m9721b1855c" x="187.701989" y="70.528309" style="fill: #008080; stroke: #008080"/>
     <use xlink:href="#m9721b1855c" x="195.592898" y="106.954659" style="fill: #008080; stroke: #008080"/>
     <use xlink:href="#m9721b1855c" x="203.483807" y="113.936843" style="fill: #008080; stroke: #008080"/>
     <use xlink:href="#m9721b1855c" x="211.374716" y="97.166718" style="fill: #008080; stroke: #008080"/>
     <use xlink:href="#m9721b1855c" x="219.265625" y="78.419196" style="fill: #008080; stroke: #008080"/>
     <use xlink:href="#m9721b1855c" x="227.156534" y="77.861646" style="fill: #008080; stroke: #008080"/>
     <use xlink:href="#m9721b1855c" x="235.047443" y="73.775949" style="fill: #008080; stroke: #008080"/>
     <use xlink:href="#m9721b1855c" x="242.938352" y="66.44192" style="fill: #008080; stroke: #008080"/>
     <use xlink:href="#m9721b1855c" x="250.829261" y="88.892819" style="fill: #008080; stroke: #008080"/>
     <use xlink:href="#m9721b1855c" x="258.72017" y="114.849701" style="fill: #008080; stroke: #008080"/>
     <use xlink:href="#m9721b1855c" x="266.61108" y="86.075288" style="fill: #008080; stroke: #008080"/>
     <use xlink:href="#m9721b1855c" x="274.501989" y="87.629501" style="fill: #008080; stroke: #008080"/>
     <use xlink:href="#m9721b1855c" x="282.392898" y="75.676467" style="fill: #008080; stroke: #008080"/>
     <use xlink:href="#m9721b1855c" x="290.283807" y="61.780666" style="fill: #008080; stroke: #008080"/>
     <use xlink:href="#m9721b1855c" x="298.174716" y="292.996875" style="fill: #008080; stroke: #008080"/>
     <use xlink:href="#m9721b1855c" x="306.065625" y="237.517563" style="fill: #008080; stroke: #008080"/>
     <use xlink:href="#m9721b1855c" x="313.956534" y="154.983584" style="fill: #008080; stroke: #008080"/>
     <use xlink:href="#m9721b1855c" x="321.847443" y="123.609811" style="fill: #008080; stroke: #008080"/>
     <use xlink:href="#m9721b1855c" x="329.738352" y="102.198517" style="fill: #008080; stroke: #008080"/>
     <use xlink:href="#m9721b1855c" x="337.629261" y="86.053125" style="fill: #008080; stroke: #008080"/>
     <use xlink:href="#m9721b1855c" x="345.52017" y="65.489583" style="fill: #008080; stroke: #008080"/>
     <use xlink:href="#m9721b1855c" x="353.41108" y="51.478809" style="fill: #008080; stroke: #008080"/>
     <use xlink:href="#m9721b1855c" x="361.301989" y="101.438726" style="fill: #008080; stroke: #008080"/>
     <use xlink:href="#m9721b1855c" x="369.192898" y="114.204883" style="fill: #008080; stroke: #008080"/>
     <use xlink:href="#m9721b1855c" x="377.083807" y="99.434318" style="fill: #008080; stroke: #008080"/>
     <use xlink:href="#m9721b1855c" x="384.974716" y="93.333131" style="fill: #008080; stroke: #008080"/>
     <use xlink:href="#m9721b1855c" x="392.865625" y="77.880346" style="fill: #008080; stroke: #008080"/>
     <use xlink:href="#m9721b1855c" x="400.756534" y="68.388149" style="fill: #008080; stroke: #008080"/>
     <use xlink:href="#m9721b1855c" x="408.647443" y="55.946133" style="fill: #008080; stroke: #008080"/>
     <use xlink:href="#m9721b1855c" x="416.538352" y="93.508361" style="fill: #008080; stroke: #008080"/>
     <use xlink:href="#m9721b1855c" x="424.429261" y="113.614781" style="fill: #008080; stroke: #008080"/>
     <use xlink:href="#m9721b1855c" x="432.32017" y="96.565534" style="fill: #008080; stroke: #008080"/>
     <use xlink:href="#m9721b1855c" x="440.21108" y="79.38954" style="fill: #008080; stroke: #008080"/>
     <use xlink:href="#m9721b1855c" x="448.101989" y="54.26171" style="fill: #008080; stroke: #008080"/>
     <use xlink:href="#m9721b1855c" x="455.992898" y="53.125139" style="fill: #008080; stroke: #008080"/>
     <use xlink:href="#m9721b1855c" x="463.883807" y="43.795013" style="fill: #008080; stroke: #008080"/>
     <use xlink:href="#m9721b1855c" x="471.774716" y="75.323236" style="fill: #008080; stroke: #008080"/>
     <use xlink:href="#m9721b1855c" x="479.665625" y="109.18555" style="fill: #008080; stroke: #008080"/>
     <use xlink:href="#m9721b1855c" x="487.556534" y="99.1268" style="fill: #008080; stroke: #008080"/>
     <use xlink:href="#m9721b1855c" x="495.447443" y="83.694793" style="fill: #008080; stroke: #008080"/>
     <use xlink:href="#m9721b1855c" x="503.338352" y="68.219153" style="fill: #008080; stroke: #008080"/>
     <use xlink:href="#m9721b1855c" x="511.229261" y="61.719024" style="fill: #008080; stroke: #008080"/>
     <use xlink:href="#m9721b1855c" x="519.12017" y="58.056511" style="fill: #008080; stroke: #008080"/>
     <use xlink:href="#m9721b1855c" x="527.01108" y="93.688439" style="fill: #008080; stroke: #008080"/>
     <use xlink:href="#m9721b1855c" x="534.901989" y="110.725219" style="fill: #008080; stroke: #008080"/>
     <use xlink:href="#m9721b1855c" x="542.792898" y="77.324875" style="fill: #008080; stroke: #008080"/>
     <use xlink:href="#m9721b1855c" x="550.683807" y="74.10009" style="fill: #008080; stroke: #008080"/>
     <use xlink:href="#m9721b1855c" x="558.574716" y="65.301887" style="fill: #008080; stroke: #008080"/>
     <use xlink:href="#m9721b1855c" x="566.465625" y="50.308994" style="fill: #008080; stroke: #008080"/>
     <use xlink:href="#m9721b1855c" x="574.356534" y="48.140437" style="fill: #008080; stroke: #008080"/>
     <use xlink:href="#m9721b1855c" x="582.247443" y="98.478518" style="fill: #008080; stroke: #008080"/>
     <use xlink:href="#m9721b1855c" x="590.138352" y="110.16005" style="fill: #008080; stroke: #008080"/>
     <use xlink:href="#m9721b1855c" x="598.029261" y="93.073403" style="fill: #008080; stroke: #008080"/>
     <use xlink:href="#m9721b1855c" x="605.92017" y="69.784448" style="fill: #008080; stroke: #008080"/>
     <use xlink:href="#m9721b1855c" x="613.81108" y="56.623504" style="fill: #008080; stroke: #008080"/>
     <use xlink:href="#m9721b1855c" x="621.701989" y="52.01004" style="fill: #008080; stroke: #008080"/>
     <use xlink:href="#m9721b1855c" x="629.592898" y="40.996875" style="fill: #008080; stroke: #008080"/>
     <use xlink:href="#m9721b1855c" x="637.483807" y="85.875817" style="fill: #008080; stroke: #008080"/>
     <use xlink:href="#m9721b1855c" x="645.374716" y="109.635746" style="fill: #008080; stroke: #008080"/>
     <use xlink:href="#m9721b1855c" x="653.265625" y="92.826834" style="fill: #008080; stroke: #008080"/>
     <use xlink:href="#m9721b1855c" x="661.156534" y="84.843138" style="fill: #008080; stroke: #008080"/>
     <use xlink:href="#m9721b1855c" x="669.047443" y="69.817" style="fill: #008080; stroke: #008080"/>
     <use xlink:href="#m9721b1855c" x="676.938352" y="57.621553" style="fill: #008080; stroke: #008080"/>
     <use xlink:href="#m9721b1855c" x="684.829261" y="46.559212" style="fill: #008080; stroke: #008080"/>
     <use xlink:href="#m9721b1855c" x="692.72017" y="97.544189" style="fill: #008080; stroke: #008080"/>
     <use xlink:href="#m9721b1855c" x="700.61108" y="85.701972" style="fill: #008080; stroke: #008080"/>
     <use xlink:href="#m9721b1855c" x="708.501989" y="85.758074" style="fill: #008080; stroke: #008080"/>
     <use xlink:href="#m9721b1855c" x="716.392898" y="75.968055" style="fill: #008080; stroke: #008080"/>
     <use xlink:href="#m9721b1855c" x="724.283807" y="75.234583" style="fill: #008080; stroke: #008080"/>
     <use xlink:href="#m9721b1855c" x="732.174716" y="50.423967" style="fill: #008080; stroke: #008080"/>
     <use xlink:href="#m9721b1855c" x="740.065625" y="47.374413" style="fill: #008080; stroke: #008080"/>
     <use xlink:href="#m9721b1855c" x="747.956534" y="83.024348" style="fill: #008080; stroke: #008080"/>
     <use xlink:href="#m9721b1855c" x="755.847443" y="112.914554" style="fill: #008080; stroke: #008080"/>
     <use xlink:href="#m9721b1855c" x="763.738352" y="97.957677" style="fill: #008080; stroke: #008080"/>
     <use xlink:href="#m9721b1855c" x="771.629261" y="87.195928" style="fill: #008080; stroke: #008080"/>
     <use xlink:href="#m9721b1855c" x="779.52017" y="70.211094" style="fill: #008080; stroke: #008080"/>
     <use xlink:href="#m9721b1855c" x="787.41108" y="74.743523" style="fill: #008080; stroke: #008080"/>
     <use xlink:href="#m9721b1855c" x="795.301989" y="72.23074" style="fill: #008080; stroke: #008080"/>
     <use xlink:href="#m9721b1855c" x="803.192898" y="111.8514" style="fill: #008080; stroke: #008080"/>
     <use xlink:href="#m9721b1855c" x="811.083807" y="112.070264" style="fill: #008080; stroke: #008080"/>
     <use xlink:href="#m9721b1855c" x="818.974716" y="89.68447" style="fill: #008080; stroke: #008080"/>
     <use xlink:href="#m9721b1855c" x="826.865625" y="85.018368" style="fill: #008080; stroke: #008080"/>
     <use xlink:href="#m9721b1855c" x="834.756534" y="78.563951" style="fill: #008080; stroke: #008080"/>
    </g>
   </g>
   <g id="patch_4">
    <path d="M 89.065625 305.596875 
L 89.065625 28.396875 
" style="fill: none; stroke: #000000; stroke-width: 0.8; stroke-linejoin: miter; stroke-linecap: square"/>
   </g>
   <g id="patch_5">
    <path d="M 870.265625 305.596875 
L 870.265625 28.396875 
" style="fill: none; stroke: #000000; stroke-width: 0.8; stroke-linejoin: miter; stroke-linecap: square"/>
   </g>
   <g id="patch_6">
    <path d="M 89.065625 305.596875 
L 870.265625 305.596875 
" style="fill: none; stroke: #000000; stroke-width: 0.8; stroke-linejoin: miter; stroke-linecap: square"/>
   </g>
   <g id="patch_7">
    <path d="M 89.065625 28.396875 
L 870.265625 28.396875 
" style="fill: none; stroke: #000000; stroke-width: 0.8; stroke-linejoin: miter; stroke-linecap: square"/>
   </g>
   <g id="patch_8">
    <path d="M 351.350806 197.241014 
Q 329.844175 237.691735 308.337544 278.142457 
L 311.869385 280.020248 
Q 306.403479 283.910303 300.937573 287.800358 
Q 301.105717 281.093617 301.273862 274.386875 
L 304.805703 276.264666 
Q 326.312334 235.813944 347.818965 195.363223 
L 351.350806 197.241014 
z
" style="stroke: #000000; stroke-linecap: round"/>
   </g>
   <g id="text_18">
    <!-- Jonas Blizzard Effect -->
    <g style="fill: #ff0000" transform="translate(353.41108 185.362188) scale(0.18 -0.18)">
     <defs>
      <path id="DejaVuSans-4a" d="M 628 4666 
L 1259 4666 
L 1259 325 
Q 1259 -519 939 -900 
Q 619 -1281 -91 -1281 
L -331 -1281 
L -331 -750 
L -134 -750 
Q 284 -750 456 -515 
Q 628 -281 628 325 
L 628 4666 
z
" transform="scale(0.015625)"/>
      <path id="DejaVuSans-6e" d="M 3513 2113 
L 3513 0 
L 2938 0 
L 2938 2094 
Q 2938 2591 2744 2837 
Q 2550 3084 2163 3084 
Q 1697 3084 1428 2787 
Q 1159 2491 1159 1978 
L 1159 0 
L 581 0 
L 581 3500 
L 1159 3500 
L 1159 2956 
Q 1366 3272 1645 3428 
Q 1925 3584 2291 3584 
Q 2894 3584 3203 3211 
Q 3513 2838 3513 2113 
z
" transform="scale(0.015625)"/>
      <path id="DejaVuSans-42" d="M 1259 2228 
L 1259 519 
L 2272 519 
Q 2781 519 3026 730 
Q 3272 941 3272 1375 
Q 3272 1813 3026 2020 
Q 2781 2228 2272 2228 
L 1259 2228 
z
M 1259 4147 
L 1259 2741 
L 2194 2741 
Q 2656 2741 2882 2914 
Q 3109 3088 3109 3444 
Q 3109 3797 2882 3972 
Q 2656 4147 2194 4147 
L 1259 4147 
z
M 628 4666 
L 2241 4666 
Q 2963 4666 3353 4366 
Q 3744 4066 3744 3513 
Q 3744 3084 3544 2831 
Q 3344 2578 2956 2516 
Q 3422 2416 3680 2098 
Q 3938 1781 3938 1306 
Q 3938 681 3513 340 
Q 3088 0 2303 0 
L 628 0 
L 628 4666 
z
" transform="scale(0.015625)"/>
      <path id="DejaVuSans-6c" d="M 603 4863 
L 1178 4863 
L 1178 0 
L 603 0 
L 603 4863 
z
" transform="scale(0.015625)"/>
      <path id="DejaVuSans-7a" d="M 353 3500 
L 3084 3500 
L 3084 2975 
L 922 459 
L 3084 459 
L 3084 0 
L 275 0 
L 275 525 
L 2438 3041 
L 353 3041 
L 353 3500 
z
" transform="scale(0.015625)"/>
      <path id="DejaVuSans-64" d="M 2906 2969 
L 2906 4863 
L 3481 4863 
L 3481 0 
L 2906 0 
L 2906 525 
Q 2725 213 2448 61 
Q 2172 -91 1784 -91 
Q 1150 -91 751 415 
Q 353 922 353 1747 
Q 353 2572 751 3078 
Q 1150 3584 1784 3584 
Q 2172 3584 2448 3432 
Q 2725 3281 2906 2969 
z
M 947 1747 
Q 947 1113 1208 752 
Q 1469 391 1925 391 
Q 2381 391 2643 752 
Q 2906 1113 2906 1747 
Q 2906 2381 2643 2742 
Q 2381 3103 1925 3103 
Q 1469 3103 1208 2742 
Q 947 2381 947 1747 
z
" transform="scale(0.015625)"/>
      <path id="DejaVuSans-45" d="M 628 4666 
L 3578 4666 
L 3578 4134 
L 1259 4134 
L 1259 2753 
L 3481 2753 
L 3481 2222 
L 1259 2222 
L 1259 531 
L 3634 531 
L 3634 0 
L 628 0 
L 628 4666 
z
" transform="scale(0.015625)"/>
      <path id="DejaVuSans-63" d="M 3122 3366 
L 3122 2828 
Q 2878 2963 2633 3030 
Q 2388 3097 2138 3097 
Q 1578 3097 1268 2742 
Q 959 2388 959 1747 
Q 959 1106 1268 751 
Q 1578 397 2138 397 
Q 2388 397 2633 464 
Q 2878 531 3122 666 
L 3122 134 
Q 2881 22 2623 -34 
Q 2366 -91 2075 -91 
Q 1284 -91 818 406 
Q 353 903 353 1747 
Q 353 2603 823 3093 
Q 1294 3584 2113 3584 
Q 2378 3584 2631 3529 
Q 2884 3475 3122 3366 
z
" transform="scale(0.015625)"/>
     </defs>
     <use xlink:href="#DejaVuSans-4a"/>
     <use xlink:href="#DejaVuSans-6f" transform="translate(29.492188 0)"/>
     <use xlink:href="#DejaVuSans-6e" transform="translate(90.673828 0)"/>
     <use xlink:href="#DejaVuSans-61" transform="translate(154.052734 0)"/>
     <use xlink:href="#DejaVuSans-73" transform="translate(215.332031 0)"/>
     <use xlink:href="#DejaVuSans-20" transform="translate(267.431641 0)"/>
     <use xlink:href="#DejaVuSans-42" transform="translate(299.21875 0)"/>
     <use xlink:href="#DejaVuSans-6c" transform="translate(367.822266 0)"/>
     <use xlink:href="#DejaVuSans-69" transform="translate(395.605469 0)"/>
     <use xlink:href="#DejaVuSans-7a" transform="translate(423.388672 0)"/>
     <use xlink:href="#DejaVuSans-7a" transform="translate(475.878906 0)"/>
     <use xlink:href="#DejaVuSans-61" transform="translate(528.369141 0)"/>
     <use xlink:href="#DejaVuSans-72" transform="translate(589.648438 0)"/>
     <use xlink:href="#DejaVuSans-64" transform="translate(629.011719 0)"/>
     <use xlink:href="#DejaVuSans-20" transform="translate(692.488281 0)"/>
     <use xlink:href="#DejaVuSans-45" transform="translate(724.275391 0)"/>
     <use xlink:href="#DejaVuSans-66" transform="translate(787.458984 0)"/>
     <use xlink:href="#DejaVuSans-66" transform="translate(822.664062 0)"/>
     <use xlink:href="#DejaVuSans-65" transform="translate(857.869141 0)"/>
     <use xlink:href="#DejaVuSans-63" transform="translate(919.392578 0)"/>
     <use xlink:href="#DejaVuSans-74" transform="translate(974.373047 0)"/>
    </g>
   </g>
   <g id="text_19">
    <!-- Total Daily Taxi Trips -->
    <g transform="translate(379.1125 22.396875) scale(0.2 -0.2)">
     <defs>
      <path id="DejaVuSans-79" d="M 2059 -325 
Q 1816 -950 1584 -1140 
Q 1353 -1331 966 -1331 
L 506 -1331 
L 506 -850 
L 844 -850 
Q 1081 -850 1212 -737 
Q 1344 -625 1503 -206 
L 1606 56 
L 191 3500 
L 800 3500 
L 1894 763 
L 2988 3500 
L 3597 3500 
L 2059 -325 
z
" transform="scale(0.015625)"/>
      <path id="DejaVuSans-78" d="M 3513 3500 
L 2247 1797 
L 3578 0 
L 2900 0 
L 1881 1375 
L 863 0 
L 184 0 
L 1544 1831 
L 300 3500 
L 978 3500 
L 1906 2253 
L 2834 3500 
L 3513 3500 
z
" transform="scale(0.015625)"/>
     </defs>
     <use xlink:href="#DejaVuSans-54"/>
     <use xlink:href="#DejaVuSans-6f" transform="translate(44.083984 0)"/>
     <use xlink:href="#DejaVuSans-74" transform="translate(105.265625 0)"/>
     <use xlink:href="#DejaVuSans-61" transform="translate(144.474609 0)"/>
     <use xlink:href="#DejaVuSans-6c" transform="translate(205.753906 0)"/>
     <use xlink:href="#DejaVuSans-20" transform="translate(233.537109 0)"/>
     <use xlink:href="#DejaVuSans-44" transform="translate(265.324219 0)"/>
     <use xlink:href="#DejaVuSans-61" transform="translate(342.326172 0)"/>
     <use xlink:href="#DejaVuSans-69" transform="translate(403.605469 0)"/>
     <use xlink:href="#DejaVuSans-6c" transform="translate(431.388672 0)"/>
     <use xlink:href="#DejaVuSans-79" transform="translate(459.171875 0)"/>
     <use xlink:href="#DejaVuSans-20" transform="translate(518.351562 0)"/>
     <use xlink:href="#DejaVuSans-54" transform="translate(550.138672 0)"/>
     <use xlink:href="#DejaVuSans-61" transform="translate(594.722656 0)"/>
     <use xlink:href="#DejaVuSans-78" transform="translate(656.001953 0)"/>
     <use xlink:href="#DejaVuSans-69" transform="translate(715.181641 0)"/>
     <use xlink:href="#DejaVuSans-20" transform="translate(742.964844 0)"/>
     <use xlink:href="#DejaVuSans-54" transform="translate(774.751953 0)"/>
     <use xlink:href="#DejaVuSans-72" transform="translate(821.085938 0)"/>
     <use xlink:href="#DejaVuSans-69" transform="translate(862.199219 0)"/>
     <use xlink:href="#DejaVuSans-70" transform="translate(889.982422 0)"/>
     <use xlink:href="#DejaVuSans-73" transform="translate(953.458984 0)"/>
    </g>
   </g>
  </g>
 </g>
 <defs>
  <clipPath id="p357d53d406">
   <rect x="89.065625" y="28.396875" width="781.2" height="277.2"/>
  </clipPath>
 </defs>
</svg>
